<?xml version="1.0" encoding="UTF-8"?>
<svg width="499px" height="177px" viewBox="0 0 499 177" version="1.1" xmlns="http://www.w3.org/2000/svg" xmlns:xlink="http://www.w3.org/1999/xlink">
    <!-- Generator: Sketch 57.1 (83088) - https://sketch.com -->
    <title>logo</title>
    <desc>Created with Sketch.</desc>
    <defs>
        <path d="M40.536,45.232 L41.832,46.6 L42.048,48.112 L42.48,49.048 L42.048,52.36 L40.824,53.656 L40.392,55.024 L38.808,55.744 L38.808,56.32 L37.44,56.608 L36.576,57.616 C36.1919981,57.808001 35.6640034,57.9879992 34.992,58.156 C34.3199966,58.3240008 33.5520043,58.5279988 32.688,58.768 C32.3039981,59.0080012 31.9680014,59.2599987 31.68,59.524 C31.3919986,59.7880013 30.9840026,59.9439998 30.456,59.992 L28.728,60.856 C28.0559966,61.1920017 27.3600036,61.4319993 26.64,61.576 L25.704,61.36 L22.392,62.224 L20.736,62.152 L19.368,61.864 L18.288,62.152 L16.344,62.368 L15.12,62.368 L14.4,62.08 C14.3519998,62.08 14.2560007,62.1639992 14.112,62.332 C13.9679993,62.5000008 13.800001,62.4640012 13.608,62.224 L13.176,61.72 C13.0799995,61.7680002 12.9720006,61.887999 12.852,62.08 C12.7319994,62.272001 12.5520012,62.4159995 12.312,62.512 C12.119999,62.512 11.9160011,62.4880002 11.7,62.44 C11.4839989,62.3919998 11.2560012,62.3200005 11.016,62.224 L10.368,62.368 C10.0319983,62.368 9.81600048,62.3440002 9.72,62.296 C9.62399952,62.3440002 9.54000036,62.2960007 9.468,62.152 C9.39599964,62.0079993 9.31200048,61.936 9.216,61.936 C8.83199808,61.936 8.42400216,61.840001 7.992,61.648 L6.768,62.08 L5.904,60.856 L5.4,61.216 L4.464,60.784 C4.07999808,61.1200017 3.67200216,61.288 3.24,61.288 C2.85599808,61.288 2.49600168,61.0240026 2.16,60.496 C0.7199928,60.303999 0,58.9840122 0,56.536 C0,54.8559916 0.76799232,53.9440007 2.304,53.8 C2.88000288,53.4639983 3.50399664,53.296 4.176,53.296 L4.68,53.296 L6.912,53.08 C8.5920084,53.6560029 9.432,54.3999954 9.432,55.312 C9.432,55.6960019 9.21600216,56.1039978 8.784,56.536 C9.0240012,56.536 9.35999784,56.6079993 9.792,56.752 L11.232,56.464 C11.8080029,56.464 12.3839971,56.6799978 12.96,57.112 C13.3440019,57.0159995 13.7639977,57.0519992 14.22,57.22 C14.6760023,57.3880008 15.1439976,57.472 15.624,57.472 L17.064,57.472 C17.5920026,57.1359983 18,56.968 18.288,56.968 C18.6720019,56.968 19.0559981,57.0879988 19.44,57.328 C19.8720022,57.0399986 20.3759971,56.8480005 20.952,56.752 L22.392,57.544 L22.536,57.328 L24.192,57.04 L25.128,57.04 L26.568,56.032 C27,56.0800002 27.3479987,56.1159999 27.612,56.14 C27.8760013,56.1640001 28.0559995,56.176 28.152,56.176 C28.2960007,56.176 28.5839978,56.0440013 29.016,55.78 C29.4480022,55.5159987 29.8559981,55.2640012 30.24,55.024 L31.032,55.024 L31.248,54.592 L32.544,53.656 L32.832,53.152 C34.2720072,52.4799966 35.1839981,51.9280022 35.568,51.496 C36.576005,50.1519933 36.6240046,49.0480043 35.712,48.184 C35.6159995,48.0879995 35.4960007,48.04 35.352,48.04 C35.2079993,48.04 34.9200022,47.9920005 34.488,47.896 L33.192,46.888 L31.536,46.6 L29.304,47.032 L28.728,46.312 L28.08,46.456 L27.216,45.592 L26.856,45.808 C26.1359964,45.6639993 25.680001,45.592 25.488,45.592 C25.1999986,45.6400002 24.9480011,45.6879998 24.732,45.736 C24.5159989,45.7840002 24.312001,45.832 24.12,45.88 C23.927999,45.832 23.6400019,45.6160019 23.256,45.232 L22.896,45.376 C22.0799959,45.6160012 21.1920048,45.7599998 20.232,45.808 L19.728,45.304 L17.928,45.16 L17.28,44.512 L16.272,44.584 L14.616,43.792 L13.248,42.64 L12.744,40.984 L13.536,39.256 L15.264,38.752 C15.7920026,38.4159983 16.3319972,38.2000005 16.884,38.104 C17.4360028,38.0079995 17.9759974,37.9120005 18.504,37.816 L19.584,37.096 L23.112,36.088 L23.832,35.512 L25.2,35.8 L25.92,35.008 L26.424,35.296 C27.3840048,34.3359952 28.4879938,33.856 29.736,33.856 L30.456,33.208 L30.6,33.064 C30.9840019,32.7279983 31.6319954,32.3200024 32.544,31.84 C32.9280019,31.1679966 33.0360008,30.6640017 32.868,30.328 C32.6999992,29.9919983 32.3520026,29.5840024 31.824,29.104 C31.4399981,28.5279971 30.0240122,27.9760026 27.576,27.448 L26.424,27.592 C25.6079959,27.399999 24.9120029,27.304 24.336,27.304 C23.7119969,27.304 23.1600024,27.3759993 22.68,27.52 L21.888,27.52 L20.448,27.88 L19.152,27.52 L18.504,28.168 L15.552,28.384 L13.752,29.032 C13.3199978,29.4640022 12.8400026,29.68 12.312,29.68 C12.119999,29.68 11.7120031,29.5600012 11.088,29.32 C11.0399998,29.6080014 10.920001,29.847999 10.728,30.04 L10.296,30.04 C9.91199808,30.04 9.5400018,30.0759996 9.18,30.148 C8.8199982,30.2200004 8.44800192,30.5679969 8.064,31.192 C7.67999808,31.192 7.44000048,31.1680002 7.344,31.12 L6.84,32.344 L3.96,31.12 L3.168,30.256 L3.456,29.752 L2.952,29.824 C2.66399856,29.3439976 2.52,28.9360017 2.52,28.6 C2.52,28.3119986 2.54399976,28.1440002 2.592,28.096 L3.024,26.584 L3.456,26.152 C3.9360024,25.7679981 4.43999736,25.576 4.968,25.576 L5.256,25.576 L5.832,24.784 L7.056,25.072 C7.63200288,24.5439974 8.32799592,24.28 9.144,24.28 L9.504,24.28 C9.504,24.087999 9.67199832,23.7760022 10.008,23.344 L11.52,23.344 L12.168,22.984 L13.392,22.84 L14.472,23.704 L14.4,22.984 L15.48,22.984 L16.56,22.696 L19.152,22.192 L20.016,22.264 C20.4960024,22.1679995 21,22.0720005 21.528,21.976 C22.0560026,21.8799995 22.6079971,21.832 23.184,21.832 L24.192,21.832 L23.904,22.12 L24.264,22.12 C24.6960022,22.12 25.0799983,22.215999 25.416,22.408 L26.208,22.12 L27.864,22.264 L28.872,22.264 C29.3520024,22.264 29.7599983,22.2400002 30.096,22.192 L30.672,22.192 L30.672,22.768 L32.472,23.344 L34.56,23.776 L35.568,25.216 L37.008,26.224 C37.5360026,26.9440036 37.9559984,27.6279968 38.268,28.276 C38.5800016,28.9240032 38.640001,29.7999945 38.448,30.904 L38.016,32.632 L38.016,32.776 C37.9679998,32.9200007 37.8840006,33.1239987 37.764,33.388 C37.6439994,33.6520013 37.4640012,33.9759981 37.224,34.36 C36.4559962,35.5120058 35.472006,36.2799981 34.272,36.664 L33.624,37.24 L31.68,38.104 L29.952,38.464 L28.872,39.184 L25.776,39.616 L24.552,40.192 L23.04,40.192 L21.24,40.768 L23.112,41.344 L25.2,41.344 L26.208,41.272 L28.512,41.272 C29.3280041,41.272 29.9039983,41.4639981 30.24,41.848 C31.1520046,42.1360014 32.207994,42.28 33.408,42.28 L33.984,42.712 C34.0320002,42.712 34.0799998,42.6880002 34.128,42.64 C34.1760002,42.64 34.2599994,42.6519999 34.38,42.676 L34.92,42.784 L36.648,42.928 L37.8,43.792 L38.736,43.792 L40.536,45.232 Z M58.68,53.944 L58.824,54.736 L58.32,55.816 L58.392,56.176 L58.608,56.248 L58.752,57.256 L60.192,57.472 L61.632,56.968 L62.928,56.896 C63.2160014,57.088001 63.4199994,57.1959999 63.54,57.22 C63.6600006,57.2440001 63.815999,57.2320002 64.008,57.184 L65.16,56.608 L66.96,56.68 L68.832,56.104 L70.416,55.456 L71.352,55.528 L72.216,54.808 L73.008,54.664 C73.2960014,54.664 73.6319981,54.6280004 74.016,54.556 C74.4000019,54.4839996 74.7839981,54.4000005 75.168,54.304 C75.5520019,54.2079995 75.9119983,54.0760008 76.248,53.908 C76.5840017,53.7399992 76.847999,53.5360012 77.04,53.296 L77.616,52.576 L79.056,52.144 L79.488,51.352 L79.848,50.992 L79.632,50.848 L78.552,50.704 L78.336,50.344 L77.976,50.344 L76.464,49.696 L75.24,49.84 L74.664,49.336 L73.296,49.48 C73.0079986,49.1919986 72.7200014,49.0240002 72.432,48.976 C72.0479981,49.2160012 71.6880017,49.336 71.352,49.336 C71.1119988,49.2879998 70.7520024,49.1440012 70.272,48.904 C69.8879981,48.904 69.6120008,48.8920001 69.444,48.868 C69.2759992,48.8439999 68.9760022,48.8080002 68.544,48.76 L67.752,48.688 C67.3679981,48.5919995 67.0440013,48.5919995 66.78,48.688 C66.5159987,48.7840005 66.2400014,48.832 65.952,48.832 C65.8079993,48.832 65.6280011,48.7960004 65.412,48.724 C65.1959989,48.6519996 64.9680012,48.6399998 64.728,48.688 L63.288,48.832 L62.28,48.112 L62.208,48.544 L60.048,48.472 L59.328,48.184 C58.5599962,48.184 58.176,48.5439964 58.176,49.264 L58.176,50.56 L58.536,50.776 L58.176,51.784 L58.32,52.216 L58.176,53.152 L58.68,53.944 Z M85.824,52.288 L84.672,53.296 L84.384,54.16 L83.592,54.304 L82.728,55.6 L81.216,55.888 L79.92,56.824 L79.416,57.04 L78.408,58.12 L76.752,57.976 L76.032,58.552 L75.096,58.408 C74.6639978,58.6960014 74.3040014,58.9599988 74.016,59.2 C73.7279986,59.4400012 73.2960029,59.6079995 72.72,59.704 L72.216,59.416 L70.344,60.784 L69.624,60.424 L69.12,60.712 L67.968,60.424 L67.536,60.712 L66.312,60.856 L65.376,60.64 L64.224,61.648 L62.856,61.504 L62.856,61.576 C62.8079998,61.6240002 62.5440024,61.7199993 62.064,61.864 L61.704,61.432 C61.0799969,61.9120024 60.3600041,62.152 59.544,62.152 L59.184,62.152 C59.0399993,62.1039998 58.9200005,62.08 58.824,62.08 L57.744,63.232 L56.52,63.592 L55.44,63.016 L54.648,62.368 L54.072,61.72 L53.64,61.36 L53.64,60.856 C53.64,60.6159988 53.4240022,59.9440055 52.992,58.84 L53.064,57.616 L52.92,56.176 L53.28,55.096 L53.064,53.656 L53.568,52.648 L53.28,51.784 L53.496,50.344 L52.992,48.76 L52.92,48.544 C51.4799928,47.7759962 50.664001,47.0800031 50.472,46.456 C50.5680005,45.9279974 50.7839983,45.5800008 51.12,45.412 C51.4560017,45.2439992 51.8879974,44.9920017 52.416,44.656 L53.136,44.224 L52.704,43 L53.208,42.784 L52.92,41.776 L53.136,40.84 L52.776,39.832 L52.92,39.328 L52.848,38.464 L52.056,36.88 L52.2,36.232 L51.84,35.944 L51.984,35.08 L51.624,34.576 L51.192,33.64 L51.12,33.568 L50.4,34.144 L49.68,33.712 L48.96,34.144 L48.744,33.856 L47.592,34.576 L46.944,33.568 L45.648,34.36 C43.439989,33.1119938 42.336,31.984005 42.336,30.976 C42.336,30.1119957 42.7919954,29.6080007 43.704,29.464 C44.1840024,28.7439964 44.8319959,28.384 45.648,28.384 L45.864,28.384 L46.584,28.672 L46.728,28.672 C47.6880048,28.672 48.5279964,28.6839999 49.248,28.708 C49.9680036,28.7320001 50.5439978,28.7919995 50.976,28.888 C51.3600019,28.7919995 51.7079984,28.7320001 52.02,28.708 C52.3320016,28.6839999 52.6319986,28.672 52.92,28.672 L53.28,28.888 L53.712,28.744 L55.584,29.464 L57.24,29.896 C57.3840007,29.8479998 57.7199974,29.824 58.248,29.824 C58.5360014,29.824 58.775999,29.8359999 58.968,29.86 C59.160001,29.884 59.3279993,29.9199998 59.472,29.968 L60.192,29.824 C60.8160031,29.8720002 61.4159971,30.0639983 61.992,30.4 L62.496,30.688 C63.2640038,30.880001 63.8639978,30.976 64.296,30.976 L65.88,30.688 L66.168,31.048 C66.7440029,31.048 67.2479978,31.2879976 67.68,31.768 L69.624,31.768 L70.416,32.56 C70.7040014,32.6560005 70.9679988,32.7279998 71.208,32.776 C71.4480012,32.8240002 71.663999,32.848 71.856,32.848 L73.152,33.28 L73.728,33.784 L75.24,33.784 L75.6,34.72 L76.968,35.584 L77.472,37.6 L76.392,39.544 C75.8639974,40.0720026 75.3840022,40.4799986 74.952,40.768 C74.5199978,41.0560014 74.0400026,41.2719993 73.512,41.416 L72.432,42.064 L71.928,41.92 L70.632,43 L69.84,43 L67.968,43.792 L66.672,43.936 C66.1919976,44.128001 65.8200013,44.2839994 65.556,44.404 C65.2919987,44.5240006 65.0280013,44.6319995 64.764,44.728 C64.4999987,44.8240005 64.2120016,44.9199995 63.9,45.016 C63.5879984,45.1120005 63.1440029,45.255999 62.568,45.448 L62.568,45.592 C62.6640005,45.592 62.9279978,45.5680002 63.36,45.52 C63.7920022,45.4719998 64.2599975,45.4240002 64.764,45.376 C65.2680025,45.3279998 65.7359978,45.2800002 66.168,45.232 C66.6000022,45.1839998 66.8879993,45.16 67.032,45.16 C67.5600026,45.0639995 68.1119971,44.9680005 68.688,44.872 C69.2640029,44.7759995 69.647999,44.8479988 69.84,45.088 C70.2240019,44.895999 70.5599986,44.8 70.848,44.8 C71.6640041,45.0400012 72.167999,45.16 72.36,45.16 L72.936,45.16 C73.128001,45.16 73.3679986,45.1120005 73.656,45.016 C73.9440014,45.1600007 74.3519974,45.2439999 74.88,45.268 C75.4080026,45.2920001 76.0799959,45.304 76.896,45.304 L77.472,45.664 C78.0480029,45.7600005 78.5759976,45.8199999 79.056,45.844 C79.5360024,45.8680001 79.9679981,45.975999 80.352,46.168 L81.432,46.168 C81.6720012,46.4080012 82.0439975,46.5759995 82.548,46.672 C83.0520025,46.7680005 83.4479986,46.9359988 83.736,47.176 C83.8800007,47.2720005 84.0839987,47.4039992 84.348,47.572 C84.6120013,47.7400008 84.9359981,48.0159981 85.32,48.4 C85.9920034,48.9760029 86.328,49.5759969 86.328,50.2 L86.256,50.992 L85.824,52.288 Z M71.928,37.024 L71.208,37.024 L70.56,36.664 L69.624,36.448 L68.904,36.952 L67.536,35.944 L66.456,35.656 L66.024,35.872 L65.448,35.224 L65.16,35.224 C64.6799976,35.224 63.936005,35.1520007 62.928,35.008 L61.416,35.224 L60.624,34.504 L59.904,34.648 L59.688,34.576 L59.256,34.864 L58.032,34.432 L57.744,34.576 L57.744,36.16 L58.176,37.384 L57.816,38.392 L58.176,39.184 L58.104,40.552 L58.464,41.632 L58.032,42.712 L58.248,43.432 L59.256,43.36 C59.3520005,43.3119998 59.495999,43.2520004 59.688,43.18 C59.880001,43.1079996 60.071999,42.9520012 60.264,42.712 L60.552,42.568 L60.984,42.856 L61.2,42.352 L63,41.416 C63.6720034,41.223999 64.1399987,41.1040002 64.404,41.056 C64.6680013,41.0079998 64.895999,40.8640012 65.088,40.624 L66.096,40.336 L66.456,40.264 C67.0800031,39.8799981 67.7999959,39.6400005 68.616,39.544 L68.904,39.328 C69.0000005,39.328 69.1919986,39.232001 69.48,39.04 L70.56,38.464 L70.704,38.464 C70.9440012,38.271999 71.1959987,38.0920008 71.46,37.924 C71.7240013,37.7559992 72.0239983,37.6240005 72.36,37.528 L71.928,37.024 Z M113.76,55.096 C113.76,55.6720029 113.328004,56.3919957 112.464,57.256 C112.223999,58.0240038 111.864002,58.6479976 111.384,59.128 L110.952,59.2 L110.16,60.568 L108.864,60.784 L107.496,61.648 L106.776,62.944 L105.984,62.8 C105.455997,63.0400012 105.024002,63.1839998 104.688,63.232 L104.256,63.88 C104.111999,63.8319998 103.896001,63.808 103.608,63.808 C102.983997,63.808 102.384003,64.2399957 101.808,65.104 L100.8,64.24 C100.607999,64.2880002 100.320002,64.312 99.936,64.312 C99.3119969,64.312 98.7840022,64.216001 98.352,64.024 L97.128,64.024 L96.552,63.664 C94.7279909,63.3759986 93.5760024,62.6800055 93.096,61.576 L93.096,61.36 L92.232,60.928 L91.8,59.704 L90.936,59.128 L90.936,58.048 L90.072,54.88 L90.216,52.288 L90.504,51.136 L90.504,49.624 L90.864,48.472 L90.792,47.968 L91.296,47.104 L91.152,47.248 C91.152,46.8159978 91.2719988,46.3600024 91.512,45.88 L91.512,45.52 L91.296,43.792 C91.296,42.9759959 91.6559964,42.2560031 92.376,41.632 C92.4240002,41.5359995 92.448,41.392001 92.448,41.2 C92.448,41.007999 92.3640008,40.612003 92.196,40.012 C92.0279992,39.411997 91.944,38.9920012 91.944,38.752 C91.944,38.1759971 92.0879986,37.5760031 92.376,36.952 C92.7600019,37.5280029 93.3119964,37.816 94.032,37.816 L94.248,37.816 C94.3440005,37.623999 94.5599983,37.4080012 94.896,37.168 C95.2800019,35.967994 95.8079966,34.9600041 96.48,34.144 L96.768,33.856 C96.768,33.663999 96.9119986,33.1120046 97.2,32.2 L97.776,32.2 L97.92,31.84 L98.496,31.696 C98.7360012,31.3119981 98.8919996,31.0840004 98.964,31.012 C99.0360004,30.9399996 99.5519952,30.6400026 100.512,30.112 C100.704001,29.7759983 100.991998,29.4640014 101.376,29.176 C101.568001,29.0799995 101.807999,28.9840005 102.096,28.888 L102.384,28.456 C103.680006,28.0239978 104.495998,27.808 104.832,27.808 C105.216002,27.808 105.575998,27.903999 105.912,28.096 L106.272,28.024 L106.776,28.312 C107.352003,28.7440022 107.927997,29.1039986 108.504,29.392 L109.728,30.328 L109.728,30.616 C110.832006,31.4800043 111.384,32.7039921 111.384,34.288 L111.168,35.008 L111.384,37.384 L110.736,37.816 L110.016,39.688 L108.648,41.2 L108.576,42.352 C107.039992,43.4560055 105.624006,44.3439966 104.328,45.016 C103.895998,45.6880034 103.224005,46.024 102.312,46.024 L102.096,46.024 L100.728,46.888 L99.576,46.888 L97.848,47.608 L96.552,46.96 L96.408,46.96 C96.3119995,47.3440019 96.2160005,47.9199962 96.12,48.688 L95.544,49.12 L95.472,49.984 L95.04,51.208 C95.1840007,52.3600058 95.256,53.1039983 95.256,53.44 L94.968,53.656 C94.968,54.2800031 94.9440002,54.7359986 94.896,55.024 C94.896,55.0720002 94.8720002,55.1439995 94.824,55.24 L94.824,55.456 C94.824,55.8400019 95.0159981,56.1519988 95.4,56.392 C95.5440007,56.9680029 95.7839983,57.3279993 96.12,57.472 L96.624,57.904 L98.208,58.336 L98.208,58.552 L98.784,58.696 L101.232,58.84 L102.672,58.624 L103.392,58.12 L103.824,57.976 L104.544,56.896 L104.904,56.824 L106.704,56.248 C106.896001,55.9119983 107.207998,55.6240012 107.64,55.384 L107.856,55.024 C108.816005,54.831999 109.367999,54.3280041 109.512,53.512 C110.184003,52.8399966 111.047995,52.504 112.104,52.504 L112.392,52.504 C113.304005,53.5600053 113.76,54.4239966 113.76,55.096 Z M106.632,34.36 C106.632,34.2159993 106.560001,33.9280022 106.416,33.496 L106.056,33.424 L105.912,33.496 L105.624,33.496 C105.528,33.5440002 105.432,33.568 105.336,33.568 C105.288,33.568 105.216,33.5440002 105.12,33.496 L104.904,33.496 L104.184,34 L103.536,34.072 L103.176,34.216 L101.952,35.8 L101.16,36.376 L100.008,38.392 L99.36,38.824 C99.2159993,39.6400041 98.8800026,40.3359971 98.352,40.912 L98.064,41.416 C98.5920026,41.0799983 99.1919966,40.912 99.864,40.912 L100.368,40.696 L100.584,40.048 L101.592,40.12 L102.168,39.256 L102.6,39.256 L103.392,39.544 L103.752,38.464 L104.256,38.464 L104.256,37.672 L105.192,37.456 L105.408,37.24 L105.552,36.592 L106.488,35.224 C106.584,34.9839988 106.632,34.6960017 106.632,34.36 Z M148.176,48.616 L149.184,49.84 L149.4,51.136 L149.76,51.856 L149.4,54.736 L148.392,55.816 L148.032,56.968 L146.736,57.544 L146.736,58.048 L145.656,58.264 L144.936,59.2 C144.599998,59.3440007 144.156003,59.4879993 143.604,59.632 C143.051997,59.7760007 142.440003,59.943999 141.768,60.136 C141.479999,60.3760012 141.204001,60.6039989 140.94,60.82 C140.675999,61.0360011 140.328002,61.1679998 139.896,61.216 C139.511998,61.408001 139.044003,61.6479986 138.492,61.936 C137.939997,62.2240014 137.376003,62.4399993 136.8,62.584 L136.08,62.368 L133.344,63.088 L131.976,63.016 L130.896,62.8 L129.96,63.016 L128.376,63.232 L127.368,63.232 L126.792,62.944 C126.744,63.0400005 126.672,63.1119998 126.576,63.16 C126.383999,63.2560005 126.24,63.2320007 126.144,63.088 L125.784,62.656 C125.688,62.7040002 125.604,62.8119992 125.532,62.98 C125.46,63.1480008 125.328001,63.2559998 125.136,63.304 C124.847999,63.304 124.488002,63.2320007 124.056,63.088 L123.552,63.232 C123.263999,63.232 123.072,63.2080002 122.976,63.16 C122.928,63.2080002 122.88,63.1720006 122.832,63.052 C122.784,62.9319994 122.712,62.872 122.616,62.872 C122.279998,62.872 121.944002,62.776001 121.608,62.584 L120.6,63.088 L119.88,62.008 L119.448,62.368 L118.728,62.008 C118.535999,62.200001 118.368001,62.296 118.224,62.296 L117.72,62.296 C117.383998,62.296 117.072001,62.0560024 116.784,61.576 C116.207997,61.2879986 115.776001,60.9280022 115.488,60.496 C115.199999,60.0639978 115.056,59.2960055 115.056,58.192 C115.056,56.799993 115.679994,56.0320007 116.928,55.888 C117.168001,55.7919995 117.312,55.648001 117.36,55.456 C117.408,55.263999 117.575999,55.1200005 117.864,55.024 L118.872,54.808 L120.672,54.52 C122.064007,55.0960029 122.76,55.7199966 122.76,56.392 C122.76,56.7760019 122.592002,57.1359983 122.256,57.472 C122.400001,57.472 122.663998,57.5439993 123.048,57.688 L124.2,57.472 C124.680002,57.472 125.159998,57.6399983 125.64,57.976 C125.976002,57.8799995 126.323998,57.9039993 126.684,58.048 C127.044002,58.1920007 127.415998,58.264 127.8,58.264 L129.024,58.264 C129.456002,57.9759986 129.767999,57.832 129.96,57.832 C130.200001,57.832 130.511998,57.927999 130.896,58.12 C131.136001,57.9759993 131.351999,57.8800002 131.544,57.832 C131.736001,57.7839998 131.951999,57.7360002 132.192,57.688 L133.344,58.408 L133.488,58.12 L134.784,57.904 L135.576,57.904 L136.728,57.112 C137.112002,57.112 137.411999,57.1239999 137.628,57.148 C137.844001,57.1720001 137.976,57.184 138.024,57.184 C138.168001,57.184 138.407998,57.0760011 138.744,56.86 C139.080002,56.6439989 139.415998,56.4160012 139.752,56.176 L140.4,56.176 L140.544,55.816 L141.624,55.096 L141.84,54.664 C142.320002,54.471999 142.655999,54.2320014 142.848,53.944 C143.040001,53.6559986 143.207999,53.416001 143.352,53.224 C143.592001,52.8399981 143.7,52.5160013 143.676,52.252 C143.652,51.9879987 143.592,51.7360012 143.496,51.496 C143.4,51.3999995 143.304,51.352 143.208,51.352 C143.112,51.352 142.872002,51.3040005 142.488,51.208 L141.408,50.344 L140.112,50.128 L138.96,50.488 L138.528,49.84 L137.952,49.984 L137.304,49.264 L137.016,49.48 C136.343997,49.3359993 135.96,49.264 135.864,49.264 C135.623999,49.3120002 135.420001,49.3599998 135.252,49.408 C135.083999,49.4560002 134.928001,49.5039998 134.784,49.552 C134.591999,49.5039998 134.352001,49.2880019 134.064,48.904 L133.776,49.12 C133.439998,49.2160005 133.092002,49.2879998 132.732,49.336 C132.371998,49.3840002 131.976002,49.4319998 131.544,49.48 L131.184,49.048 L129.672,48.832 L129.168,48.328 L128.376,48.4 L127.008,47.752 L125.856,46.456 L125.496,45.016 L126.144,43.576 L127.368,42.784 C127.800002,42.4959986 128.243998,42.316 128.7,42.244 C129.156002,42.1719996 129.599998,42.0880005 130.032,41.992 L130.896,41.344 L133.776,40.48 L134.352,40.048 L135.504,40.264 L136.08,39.544 L136.512,39.832 C137.280004,39.0159959 138.167995,38.608 139.176,38.608 L139.752,38.104 L139.896,37.96 C140.088001,37.767999 140.22,37.6480002 140.292,37.6 C140.364,37.5519998 140.567998,37.432001 140.904,37.24 C141.192001,36.7599976 141.276001,36.4840004 141.156,36.412 C141.035999,36.3399996 140.760002,36.0880022 140.328,35.656 C140.135999,35.4159988 139.872002,35.1880011 139.536,34.972 C139.199998,34.7559989 138.552005,34.5280012 137.592,34.288 L136.656,34.432 C135.839996,34.2879993 135.264002,34.216 134.928,34.216 C134.687999,34.216 134.460001,34.2279999 134.244,34.252 C134.027999,34.2760001 133.800001,34.3119998 133.56,34.36 L132.912,34.36 L131.76,34.648 L130.68,34.36 L130.176,34.936 L127.728,35.08 L126.288,35.584 C125.903998,36.0160022 125.520002,36.232 125.136,36.232 C124.991999,36.232 124.848001,36.2080002 124.704,36.16 C124.559999,36.1119998 124.368001,36.0400005 124.128,35.944 C124.08,36.0880007 124.032,36.1959996 123.984,36.268 C123.936,36.3400004 123.888,36.4239995 123.84,36.52 L123.48,36.52 C123.191999,36.52 122.892002,36.5439998 122.58,36.592 C122.267998,36.6400002 121.944002,36.9279974 121.608,37.456 C121.319999,37.456 121.128,37.4320002 121.032,37.384 L120.672,38.464 L118.296,36.664 L117.648,35.944 L117.864,35.512 L117.432,35.512 C117.239999,35.1759983 117.144,34.8640014 117.144,34.576 L117.144,34.144 L117.504,32.848 L117.864,32.488 C118.056,32.3439993 118.247999,32.2120006 118.44,32.092 C118.632001,31.9719994 118.847999,31.912 119.088,31.912 L119.376,31.912 L119.808,31.264 L120.816,31.552 C121.056,31.3119988 121.331998,31.1440005 121.644,31.048 C121.956002,30.9519995 122.255999,30.904 122.544,30.904 L122.832,30.904 C122.832,30.711999 122.975999,30.4240019 123.264,30.04 L124.488,30.04 L124.992,29.752 L126,29.608 L126.864,30.4 L126.792,29.752 L127.728,29.752 L128.592,29.536 L130.68,29.104 L131.4,29.176 C132.264004,28.9359988 133.127996,28.816 133.992,28.816 L134.784,28.816 L134.568,29.032 L134.856,29.032 C135.192002,29.032 135.503999,29.1039993 135.792,29.248 L136.44,29.032 L137.808,29.176 L138.636,29.176 C139.044002,29.176 139.367999,29.1520002 139.608,29.104 L140.112,29.104 L140.112,29.536 L141.552,30.04 L143.28,30.472 L144.072,31.624 L145.296,32.56 C145.728002,33.1360029 146.063999,33.6999972 146.304,34.252 C146.544001,34.8040028 146.592001,35.5599952 146.448,36.52 L146.088,37.96 L146.088,38.104 C145.992,38.3440012 145.776002,38.7759969 145.44,39.4 C144.863997,40.3600048 144.072005,41.0079983 143.064,41.344 L142.488,41.92 L140.904,42.568 L139.536,42.856 L138.6,43.576 L136.08,43.864 L135.072,44.368 L133.848,44.368 L132.408,44.872 L133.92,45.376 L135.648,45.376 L136.44,45.304 L138.312,45.304 C138.984003,45.304 139.463999,45.4719983 139.752,45.808 C140.136002,45.9040005 140.531998,45.9879996 140.94,46.06 C141.348002,46.1320004 141.815997,46.168 142.344,46.168 L142.776,46.528 C142.824,46.528 142.872,46.5040002 142.92,46.456 C142.968,46.456 143.028,46.4679999 143.1,46.492 C143.172,46.5160001 143.327999,46.528 143.568,46.528 L145.008,46.672 L145.944,47.464 L146.664,47.464 L148.176,48.616 Z M193.464,55.6 L194.112,55.24 L195.48,55.744 L195.984,55.168 L197.568,55.816 L197.64,56.104 L197.424,57.184 L197.568,57.328 L197.928,58.768 L197.28,59.344 L197.784,59.992 L197.856,60.136 C197.904,61.3840062 197.688002,62.2959971 197.208,62.872 L197.352,64.384 L197.352,65.464 L196.56,66.832 L196.632,67.912 L196.344,68.992 L195.12,71.656 L194.04,71.872 L193.392,69.64 L192.96,68.344 C192.767999,68.1039988 192.696,67.8280016 192.744,67.516 C192.792,67.2039984 192.864,66.8320022 192.96,66.4 L192.744,66.112 L192.888,65.752 L192.456,64.888 L193.032,64.024 L192.672,63.592 L193.032,62.944 C192.984,62.0799957 192.852001,61.4560019 192.636,61.072 C192.419999,60.6879981 191.832005,60.5439995 190.872,60.64 L190.728,60.64 L190.944,60.352 C190.751999,60.4000002 190.584001,60.4359999 190.44,60.46 C190.295999,60.4840001 190.128001,60.496 189.936,60.496 L187.128,60.496 C186.887999,60.496 186.600002,60.4240007 186.264,60.28 C186.168,60.28 186.060001,60.2680001 185.94,60.244 C185.819999,60.2199999 185.664001,60.1840002 185.472,60.136 L185.04,60.64 L182.664,60.208 L182.16,60.496 L180.864,60.496 L178.848,60.28 L175.68,60.64 L174.024,60.208 L170.352,60.64 C170.015998,60.64 169.440004,60.6519999 168.624,60.676 C167.807996,60.7000001 167.088003,60.712 166.464,60.712 C166.223999,60.712 166.032001,60.7599995 165.888,60.856 C165.743999,60.9520005 165.624,60.9520005 165.528,60.856 L164.664,60.784 L162.648,61.072 L162.792,61.216 C162.503999,61.216 162.288001,61.2040001 162.144,61.18 C161.999999,61.1559999 161.88,61.144 161.784,61.144 C161.543999,61.144 161.256002,61.1080004 160.92,61.036 C160.583998,60.9639996 160.368,61.024 160.272,61.216 L159.048,61.576 L158.472,61.288 C158.472,61.7680024 158.280002,62.3919962 157.896,63.16 L158.256,63.808 L157.896,64.168 L158.4,65.104 L158.112,65.896 L158.256,66.4 L158.04,66.616 C158.04,67.0480022 158.028,67.4199984 158.004,67.732 C157.98,68.0440016 157.872001,68.3199988 157.68,68.56 L157.248,69.856 L156.096,72.016 L154.8,71.8 L154.08,68.992 L153.936,67.84 L154.08,66.76 L153.288,65.464 L153.504,64.384 L153.72,62.872 C153.287998,62.2479969 153.096,61.3120062 153.144,60.064 L153.216,59.992 C153.168,59.8479993 153.132,59.7160006 153.108,59.596 C153.084,59.4759994 153.072,59.3440007 153.072,59.2 C153.072,58.4319962 153.251998,57.7960025 153.612,57.292 C153.972002,56.7879975 154.631995,56.4160012 155.592,56.176 L156.528,56.176 L158.688,55.96 L159.048,55.312 C159.336001,55.119999 159.468,54.8560017 159.444,54.52 C159.42,54.1839983 159.503999,53.920001 159.696,53.728 L160.416,53.44 L160.272,52.648 L161.208,52.288 C161.304,51.9999986 161.352,51.8320002 161.352,51.784 L161.352,51.64 L161.568,51.136 L162.216,50.632 L162.576,49.696 L162.576,48.976 L163.296,48.976 L163.368,47.968 L163.8,47.608 L163.944,47.248 C164.664004,46.7679976 165.024,46.4560007 165.024,46.312 L165.672,45.088 L166.176,44.08 L166.896,43.072 L167.4,42.208 L167.976,41.56 L168.552,40.48 L169.488,39.472 L169.776,39.256 L169.776,38.464 L169.92,38.392 L170.064,37.96 C170.400002,37.5759981 170.675999,37.0960029 170.892,36.52 C171.108001,35.9439971 171.264,35.5360012 171.36,35.296 L171.432,34.36 L171.792,33.496 L172.08,33.424 L172.08,32.56 L172.224,32.56 L172.656,31.768 L172.368,29.896 L172.872,28.816 C173.256002,28.5759988 173.699997,28.3840007 174.204,28.24 C174.708003,28.0959993 175.079999,28.024 175.32,28.024 C175.752002,28.024 176.135998,28.119999 176.472,28.312 C176.616001,28.4080005 176.831999,28.8039965 177.12,29.5 C177.408001,30.1960035 177.887997,31.024 178.56,31.984 L179.064,33.28 L179.712,34.072 L180.792,35.44 L181.8,36.736 L181.872,37.168 L183.384,38.824 L183.384,39.4 L184.176,39.616 L184.608,41.272 L185.472,42.136 L186.048,43 C186.096,43.192001 186.179999,43.3719992 186.3,43.54 C186.420001,43.7080008 186.551999,43.8639993 186.696,44.008 L186.696,44.152 L186.912,44.152 C187.152001,44.3920012 187.343999,44.6679984 187.488,44.98 C187.632001,45.2920016 187.775999,45.6159983 187.92,45.952 L188.28,46.672 L188.64,47.104 L189.288,48.76 L189.792,49.192 L189.792,49.912 L190.08,50.344 L190.728,51.424 L191.304,52.576 L192.168,53.872 L192.528,54.52 L192.96,55.168 L193.464,55.6 Z M167.04,52.288 L166.68,52.504 C166.584,52.6000005 166.524,52.743999 166.5,52.936 C166.476,53.128001 166.416,53.2719995 166.32,53.368 L165.456,54.52 L165.096,55.816 L166.968,55.744 L168.192,55.96 L169.344,55.96 L170.496,55.816 L172.8,55.816 C173.184002,55.816 173.531998,55.7680005 173.844,55.672 C174.156002,55.5759995 174.336,55.528 174.384,55.528 L174.816,55.528 C174.912,55.5760002 175.187998,55.4920011 175.644,55.276 C176.100002,55.0599989 176.352,54.952 176.4,54.952 L178.2,55.528 L179.208,55.024 L181.08,55.528 L183.528,55.672 C183.624,55.6239998 183.755999,55.6 183.924,55.6 L184.392,55.6 C184.824002,55.6 185.231998,55.6719993 185.616,55.816 L186.336,55.888 C186.336,55.6479988 186.312,55.3480018 186.264,54.988 C186.216,54.6279982 186.144,54.352001 186.048,54.16 C185.759999,53.7759981 185.616,53.4160017 185.616,53.08 L184.608,51.64 L184.536,51.136 L183.888,49.84 L183.744,49.12 L182.952,47.968 L181.872,45.88 L180.72,43.864 L179.568,42.424 C179.423999,42.3279995 179.316,42.1600012 179.244,41.92 C179.172,41.6799988 179.088,41.3920017 178.992,41.056 L178.344,40.912 L178.2,40.264 L176.976,39.4 C176.88,39.2559993 176.784,39.0640012 176.688,38.824 C176.592,38.5839988 176.424001,38.368001 176.184,38.176 L175.968,37.888 L175.536,38.104 L175.392,38.824 L174.384,40.192 L173.088,42.064 L172.44,43.36 L171.648,44.368 L171,45.736 L169.92,46.888 L169.056,48.472 L168.768,49.048 C168.672,49.4800022 168.528001,49.7679993 168.336,49.912 C168.143999,50.0560007 167.952001,50.3199981 167.76,50.704 L167.04,52.288 Z M249.768,40.336 L248.976,40.912 L249.624,42.208 L247.176,43.648 L246.888,43.648 C246.647999,43.648 246.384001,43.5760007 246.096,43.432 L245.304,44.008 L244.224,43.936 L243,44.8 L241.92,44.224 L240.48,44.584 L239.112,45.304 C239.112,45.2559998 239.016001,45.232 238.824,45.232 C238.535999,45.232 238.344,45.327999 238.248,45.52 L237.672,47.104 C237.912001,47.3440012 238.032,47.5839988 238.032,47.824 C238.032,48.1600017 237.936001,48.4479988 237.744,48.688 L237.6,49.192 L237.888,49.264 C237.888,49.6000017 237.828001,49.9239984 237.708,50.236 C237.587999,50.5480016 237.456001,50.8239988 237.312,51.064 C237.456001,51.3520014 237.564,51.6039989 237.636,51.82 C237.708,52.0360011 237.792,52.2159993 237.888,52.36 L237.24,52.792 L237.312,54.952 L236.736,58.048 L236.664,58.696 C236.712,58.9360012 236.748,59.1279993 236.772,59.272 C236.796,59.4160007 236.808,59.5359995 236.808,59.632 L236.808,59.92 L237.096,60.496 L237.168,61.576 C237.12,61.6720005 237.072,61.7919993 237.024,61.936 C236.976,62.0800007 236.904,62.2719988 236.808,62.512 C236.76,63.1840034 236.424003,63.6999982 235.8,64.06 C235.175997,64.4200018 234.312006,64.6239998 233.208,64.672 L233.064,63.304 L232.56,62.584 L232.2,61.504 L232.2,59.416 L231.696,58.12 L231.84,58.048 L231.696,57.112 L231.696,55.6 L231.84,53.296 L231.768,51.208 L232.2,49.984 L232.2,48.616 C232.2,48.3759988 232.248,48.0760018 232.344,47.716 C232.44,47.3559982 232.488,47.0560012 232.488,46.816 C232.488,46.4799983 232.368001,46.1200019 232.128,45.736 L231.984,45.52 L231.768,45.664 L230.904,45.448 C230.519998,45.5440005 230.148002,45.6159998 229.788,45.664 C229.427998,45.7120002 229.056002,45.736 228.672,45.736 L228.024,45.736 C227.831999,45.736 227.688,45.7120002 227.592,45.664 L226.656,46.456 L224.712,46.168 C224.327998,46.1199998 223.992001,46.0840001 223.704,46.06 C223.415999,46.0359999 223.200001,46.024 223.056,46.024 C222.383997,46.024 221.592005,46.1679986 220.68,46.456 L220.392,46.456 L218.808,47.032 L217.8,46.384 L216.144,46.672 L216,46.528 L215.712,46.672 L214.416,46.6 L214.272,47.104 L212.4,46.456 L210.744,46.6 L210.744,48.904 L210.6,50.272 L210.888,51.424 L210.384,52.36 L210.816,53.152 L210.384,55.744 L210.672,56.536 L210.528,57.976 L211.176,59.128 L210.816,59.704 L210.96,60.424 C210.864,61.2880043 210.312005,61.72 209.304,61.72 C208.439996,61.72 207.720003,61.3480037 207.144,60.604 C206.567997,59.8599963 206.28,58.7680072 206.28,57.328 L205.344,56.248 L204.984,55.528 C204.984,55.2879988 205.032,55.0600011 205.128,54.844 C205.224,54.6279989 205.32,54.424001 205.416,54.232 L205.56,53.224 L205.344,52.648 L204.984,47.968 L204.984,47.176 L204.912,46.96 L203.184,45.736 L203.4,42.928 L205.272,41.776 C205.368,41.4399983 205.44,41.0800019 205.488,40.696 C205.536,40.3119981 205.56,39.8800024 205.56,39.4 C205.56,38.9199976 205.536,38.5360014 205.488,38.248 C205.44,37.9599986 205.368,37.6240019 205.272,37.24 L205.632,37.456 L205.56,36.592 L205.992,35.368 L205.56,33.28 L205.56,31.912 L206.064,29.824 L208.944,28.528 L210.168,29.392 L211.536,29.824 L211.752,31.12 L212.328,31.912 L211.752,33.64 C211.848,33.9760017 211.908,34.2999984 211.932,34.612 C211.956,34.9240016 211.968,35.2719981 211.968,35.656 C211.968,36.2320029 211.944,36.7959972 211.896,37.348 C211.848,37.9000028 211.728001,38.4399974 211.536,38.968 L212.112,39.904 L211.464,40.696 L211.464,41.416 L212.04,41.632 L213.624,41.416 L214.704,41.56 L216.504,41.344 L216.648,41.56 C216.744,41.5119998 216.923999,41.488 217.188,41.488 L217.728,41.488 C217.872001,41.488 218.135998,41.5359995 218.52,41.632 L219.6,41.632 C219.648,41.632 219.935997,41.6200001 220.464,41.596 C220.992003,41.5719999 221.591997,41.56 222.264,41.56 L223.272,40.912 L224.352,41.488 L225.288,41.56 L225.576,41.632 C226.056002,41.5359995 226.344,41.488 226.44,41.488 L226.8,41.488 L231.264,40.84 L232.2,40.912 L232.56,40.696 L232.2,39.688 L232.56,38.824 L232.128,36.592 L232.56,35.8 L231.408,32.92 L231.264,32.488 L230.976,32.2 C231.024,32.1519998 231.06,32.0920004 231.084,32.02 C231.108,31.9479996 231.168,31.816001 231.264,31.624 C231.264,31.5759998 231.276,31.552 231.3,31.552 C231.324,31.552 231.336,31.528 231.336,31.48 L231.408,31.408 L231.408,31.192 C231.408,30.9039986 231.743997,30.5920017 232.416,30.256 L233.064,28.6 L235.296,28.888 L236.016,29.32 L237.96,28.96 L237.96,29.824 L238.752,29.608 L238.752,32.416 L238.392,32.92 L238.896,34.144 L238.896,34.864 L239.184,35.872 L238.752,36.952 L238.896,37.744 L238.536,40.264 L238.536,40.696 L239.904,40.624 L242.496,40.12 L243.792,40.192 L244.584,40.12 L246.024,40.12 C246.168001,40.0239995 246.335999,39.9640001 246.528,39.94 C246.720001,39.9159999 246.911999,39.904 247.104,39.904 C247.248001,39.904 247.391999,39.9159999 247.536,39.94 C247.680001,39.9640001 247.847999,40.0239995 248.04,40.12 L249.768,40.336 Z M258.768,54.088 L259.344,56.32 L259.848,55.6 L261.432,53.728 L263.664,52.648 C263.904001,52.0719971 264.299997,51.6280016 264.852,51.316 C265.404003,51.0039984 265.943997,50.7280012 266.472,50.488 L270.648,46.672 L272.592,44.368 L274.32,43.144 L274.392,42.784 C274.488,42.3999981 274.727998,42.1960001 275.112,42.172 C275.496002,42.1479999 275.807999,42.0880005 276.048,41.992 L277.488,39.832 L277.704,39.4 L280.368,37.816 L283.176,34.072 L284.328,33.424 L284.688,32.488 L285.696,31.984 C285.936001,31.5519978 286.355997,31.0720026 286.956,30.544 C287.556003,30.0159974 288.119997,29.6320012 288.648,29.392 L289.224,30.04 L289.872,29.896 C290.928005,29.9920005 291.432,30.3519969 291.384,30.976 C291.528001,31.2160012 291.6,31.4799986 291.6,31.768 C291.6,32.0080012 291.480001,32.2959983 291.24,32.632 L290.952,36.16 L290.664,36.736 L290.736,38.464 L290.376,40.552 L290.52,43.432 L289.872,44.584 L290.88,46.384 L290.304,48.112 L290.664,49.12 L291.024,49.84 L290.808,51.712 L290.808,52.36 C290.856,52.5040007 290.88,52.6359994 290.88,52.756 L290.88,53.08 L290.664,53.512 L290.16,54.088 C290.208,54.1840005 290.232,54.3759986 290.232,54.664 C290.232,54.9040012 290.196,55.0839994 290.124,55.204 C290.052,55.3240006 289.992,55.4319995 289.944,55.528 L290.376,56.464 L289.8,57.472 L290.376,59.56 C290.231999,60.4240043 289.836003,61.0719978 289.188,61.504 C288.539997,61.9360022 287.832004,62.152 287.064,62.152 L285.768,62.152 C285.527999,61.7679981 285.300001,61.372002 285.084,60.964 C284.867999,60.555998 284.736,60.1120024 284.688,59.632 C284.688,59.439999 284.759999,59.2240012 284.904,58.984 L284.184,57.976 L284.688,57.112 L284.616,55.888 L284.832,54.52 L284.184,52.36 L284.832,52.216 C284.736,52.023999 284.7,51.8200011 284.724,51.604 C284.748,51.3879989 284.76,51.1600012 284.76,50.92 C284.76,50.4399976 284.927998,50.0560014 285.264,49.768 L285.48,48.904 L284.832,45.88 L285.048,44.08 L284.688,41.488 L285.264,40.84 L285.48,39.472 L285.696,38.392 L285.336,38.32 L283.536,40.768 L282.168,41.776 L281.376,42.712 C280.991998,43.2400026 280.560002,43.7439976 280.08,44.224 C279.599998,44.7040024 279.096003,45.1359981 278.568,45.52 L277.776,46.672 L276.624,46.96 L274.608,49.84 L271.872,52.072 L270.72,53.224 L269.856,53.728 L268.704,54.736 L266.976,55.6 L266.688,56.176 L261.504,59.992 L261.144,60.064 L260.64,61 C260.399999,61.0480002 260.148001,61.1559992 259.884,61.324 C259.619999,61.4920008 259.344001,61.5999998 259.056,61.648 L258.696,61.936 L258.624,61.936 L258.624,62.44 L254.592,63.448 L253.872,62.512 L252.792,61.72 L254.016,60.424 L253.296,57.76 L253.512,57.544 L253.152,56.752 L254.592,56.032 L253.512,54.664 L254.448,53.152 L254.16,51.856 L254.232,50.92 L253.872,48.904 L254.448,48.184 L253.872,45.88 L254.376,45.232 L253.584,44.08 L254.016,41.272 L253.872,40.984 C253.487998,40.6479983 253.272,39.4960098 253.224,37.528 L253.152,37.312 L253.368,35.944 L253.152,35.08 C253.248,34.6959981 253.463998,34.2880022 253.8,33.856 C254.040001,33.8079998 254.16,33.6640012 254.16,33.424 C254.16,33.1839988 254.231999,32.9320013 254.376,32.668 C254.520001,32.4039987 254.544,32.0800019 254.448,31.696 L256.752,31.408 L257.112,30.76 L260.712,32.128 L260.28,32.776 L261.072,33.496 L260.208,34 L261,36.304 L259.992,37.096 L259.992,40.552 L259.488,42.496 L260.136,44.872 L259.056,45.808 L259.056,46.024 L259.704,46.96 L259.632,50.2 L259.344,50.416 L259.848,51.568 L258.768,54.088 Z" id="path-1"></path>
        <path d="M22.248,135.088 L23.4,135.592 L24.264,135.808 L25.416,136.96 L26.424,136.888 L27.36,138.328 L28.8,138.328 L28.944,139.12 L30.672,140.416 L31.968,140.488 C32.1120007,141.112003 32.5199966,141.472 33.192,141.568 L34.2,142.432 L36,143.08 C36.4800024,143.464002 36.8999982,143.787999 37.26,144.052 C37.6200018,144.316001 37.895999,144.519999 38.088,144.664 L38.808,145.024 L40.536,145.456 C41.2560036,146.560006 42.4079921,147.183999 43.992,147.328 C44.184001,147.760002 44.28,148.024 44.28,148.12 L44.856,148.192 C45.1440014,148.576002 45.5279976,148.971998 46.008,149.38 C46.4880024,149.788002 47.1359959,150.183998 47.952,150.568 C48.144001,151.384004 48.1320011,152.103997 47.916,152.728 C47.6999989,153.352003 47.2560034,153.735999 46.584,153.88 C46.2479983,153.976 45.9000018,153.928001 45.54,153.736 C45.1799982,153.543999 44.8080019,153.280002 44.424,152.944 L44.136,153.016 L43.56,152.944 L42.336,152.512 L41.256,152.296 L39.24,150.856 L38.376,151 L37.368,149.848 L35.136,149.416 L33.768,147.832 L27.648,144.952 L26.424,143.512 L24.912,142.792 L21.96,141.208 L20.88,141.208 L19.8,139.768 L17.856,139.696 L17.064,138.328 L15.912,137.824 C15.8639998,137.535999 15.6960014,137.224002 15.408,136.888 C15.1199986,136.551998 14.9280005,136.384 14.832,136.384 L13.752,136.312 L13.464,136.024 L12.456,136.24 L12.744,138.328 L12.312,138.4 L12.528,139.12 L11.952,141.856 C12.144001,142.144001 12.3119993,142.719996 12.456,143.584 L12.024,144.376 L11.952,145.24 L11.88,146.824 L11.376,148.048 L11.16,149.56 L10.152,151.504 L8.28,154.312 C6.5999916,154.312 5.66400096,153.640007 5.472,152.296 L5.976,150.568 L6.264,149.272 L6.336,149.056 L6.48,148.696 C6.43199976,148.6 6.3480006,148.420001 6.228,148.156 C6.1079994,147.891999 6.048,147.664001 6.048,147.472 C6.048,147.183999 6.14399904,146.872002 6.336,146.536 L6.048,146.176 L7.128,144.808 L6.552,143.656 L6.84,142.936 C6.5999988,142.359997 6.48,141.952001 6.48,141.712 C6.48,141.423999 6.57599904,141.016003 6.768,140.488 L6.912,140.056 C6.86399976,139.479997 6.82800012,139.012002 6.804,138.652 C6.77999988,138.291998 6.768,138.016001 6.768,137.824 C6.57599904,137.487998 6.48,136.984003 6.48,136.312 L6.696,136.024 L6.264,134.8 L6.84,134.152 L6.696,134.008 L6.696,132.136 L6.336,129.904 L6.912,129.4 C6.86399976,129.255999 6.84,128.872003 6.84,128.248 L6.84,127.096 L6.696,127.096 L6.336,122.704 C6.38400024,122.511999 6.62399784,122.152003 7.056,121.624 C7.056,121.191998 7.07999976,120.904001 7.128,120.76 L7.272,120.328 L7.344,119.896 C6.95999808,118.983995 6.768,118.192003 6.768,117.52 C6.768,116.463995 7.07999688,115.408005 7.704,114.352 C8.76000528,114.063999 9.47999808,113.92 9.864,113.92 C10.4880031,113.92 11.2319957,114.135998 12.096,114.568 L13.752,116.512 L13.464,118.096 L14.184,118.888 L13.752,119.824 L14.04,120.76 L13.104,122.2 L13.536,124.216 L12.96,125.944 L13.176,128.32 L12.816,128.824 L13.68,130.12 L14.184,130.12 L15.48,130.48 L16.056,130.12 L16.632,130.408 L17.136,130.048 L18.864,130.336 L19.512,129.904 L21.528,129.256 L21.528,129.04 L23.112,129.04 C23.5920024,128.559998 24.2399959,128.248001 25.056,128.104 C25.0079998,128.056 24.984,128.008 24.984,127.96 C24.984,127.719999 25.6559933,127.528001 27,127.384 L28.8,126.664 L29.448,125.656 L30.528,125.224 L30.672,124.36 L31.32,124.36 L31.32,124.072 L32.544,123.856 L33.264,122.56 L33.984,122.56 C34.1280007,121.743996 34.6799952,121.144002 35.64,120.76 L36.072,120.184 L36.072,119.392 L37.368,119.248 C37.6560014,118.383996 38.1119969,117.736002 38.736,117.304 C38.8320005,117.111999 38.9039998,116.944001 38.952,116.8 C39.0000002,116.655999 39.0479998,116.536 39.096,116.44 L40.032,115.216 L40.752,114.568 C40.8960007,113.031992 41.8319914,112.264 43.56,112.264 C43.6560005,112.264 44.207995,112.959993 45.216,114.352 L44.568,116.152 L44.928,116.296 L44.784,116.728 L44.856,117.232 L44.28,117.664 L44.064,118.888 L43.272,119.176 L42.696,120.832 L41.76,121.912 C41.3279978,122.872005 40.7520036,123.447999 40.032,123.64 C40.0800002,123.688 40.104,123.783999 40.104,123.928 C40.104,124.216001 39.9360017,124.671997 39.6,125.296 L37.872,125.656 C37.6319988,125.992002 37.3440017,126.255999 37.008,126.448 L37.008,126.88 L35.568,127.384 L34.128,128.824 L32.04,129.904 L30.528,130.984 L29.088,131.272 L27.936,131.92 L26.064,132.28 L24.336,133.288 L21.384,134.296 L22.248,135.088 Z M81.144,121.84 L80.424,122.776 L81,124.504 L80.064,125.584 L79.704,127.096 L79.488,127.456 L79.632,127.816 C79.632,128.488003 79.4640017,128.991998 79.128,129.328 L78.984,129.544 L78.984,129.832 C79.1280007,130.168002 79.2,130.479999 79.2,130.768 C79.2,131.008001 79.1760002,131.176 79.128,131.272 L79.2,131.56 L78.912,132.352 L79.128,133.216 L78.552,133.792 L78.768,134.8 L79.2,135.304 L78.552,135.88 L78.552,137.032 L78.048,138.184 L78.408,139.336 L77.976,139.912 L78.696,140.416 L77.688,142.072 L77.616,142.288 L78.336,142.432 L77.832,144.088 L77.832,144.376 C77.832,144.712002 77.8080002,144.975999 77.76,145.168 L77.832,145.384 L78.984,145.528 L79.92,146.968 L79.416,148.048 L80.208,147.976 C80.4960014,148.552003 80.6639998,149.055998 80.712,149.488 L79.632,150.568 C79.2959983,150.904002 78.8160031,151.239998 78.192,151.576 L76.968,152.224 L76.608,151.864 L75.888,152.296 L73.656,149.704 L73.656,148.48 C73.3679986,147.519995 73.224,146.632004 73.224,145.816 L73.224,145.384 L72.792,141.136 L73.368,138.112 L72.936,136.384 L71.712,138.4 L71.064,140.272 L70.488,140.56 L69.48,142.144 L67.68,143.8 L67.176,144.664 L65.592,146.032 L65.232,146.968 L62.928,148.408 L60.48,151.144 L59.112,151.432 L58.176,152.152 C56.975994,152.104 56.0640031,151.648004 55.44,150.784 C53.2799892,149.727995 52.1520005,148.21601 52.056,146.248 L52.416,146.032 L52.344,145.6 L52.272,144.736 L51.84,143.8 L52.272,142.792 L52.416,141.28 L52.92,138.904 L52.92,138.616 C52.8719998,138.52 52.848,138.424 52.848,138.328 C52.848,138.135999 52.8959995,137.896001 52.992,137.608 C52.9439998,137.512 52.92,137.320001 52.92,137.032 C52.92,136.695998 53.0639986,136.144004 53.352,135.376 L53.856,135.16 C53.5679986,134.919999 53.424,134.656001 53.424,134.368 C53.424,134.175999 53.4479998,134.032 53.496,133.936 C53.4479998,133.791999 53.424,133.624001 53.424,133.432 C53.424,132.855997 53.7119971,132.424001 54.288,132.136 C54.4320007,131.655998 54.6959981,131.176002 55.08,130.696 L54.72,130.12 L55.584,129.04 L55.584,128.752 C55.584,127.839995 55.8959969,127.000004 56.52,126.232 L56.448,124.936 L56.736,124.648 L56.736,124.432 C56.6879998,124.336 56.664,124.264 56.664,124.216 C56.664,123.927999 56.759999,123.688001 56.952,123.496 L56.952,123.064 C57.144001,122.583998 57.6479959,121.864005 58.464,120.904 C59.2800041,119.943995 59.8799981,119.104004 60.264,118.384 L60.624,118.744 L61.416,118.384 L61.776,118.24 L64.152,117.16 L69.696,117.448 L69.696,117.952 L71.424,118.312 C72.5280055,118.312 73.2479983,118.671996 73.584,119.392 C73.584,119.247999 73.6079998,119.080001 73.656,118.888 L73.656,118.6 L75.168,119.968 L76.536,120.256 L79.128,119.608 L80.064,121.408 L81.144,121.84 Z M74.304,125.584 L74.016,125.08 L73.44,124.936 L71.208,123.136 L69.768,122.92 L68.616,122.92 L68.472,122.776 L67.896,122.992 L67.248,122.632 L65.376,122.632 L65.592,122.92 L63.936,123.496 L63.648,123.856 L63.432,123.928 C62.5679957,124.648004 61.9680017,125.247998 61.632,125.728 L61.128,127.456 L60.84,128.104 L61.56,129.112 L60.336,130.048 L60.48,130.336 C59.9519974,131.248005 59.688,132.135996 59.688,133 L59.112,133.72 L59.112,135.016 L58.536,135.664 L58.392,136.312 L58.176,136.456 L58.176,137.464 L57.96,137.824 C57.96,138.400003 57.9120005,138.855998 57.816,139.192 L57.96,139.552 L57.312,140.92 L57.6,141.352 L57.096,142.072 L57.6,143.44 L56.808,144.448 L56.952,145.816 L56.952,146.032 L57.24,146.176 L57.6,146.104 C57.8400012,145.863999 58.0799988,145.648001 58.32,145.456 L58.176,144.88 L59.184,144.736 L59.4,144.232 L63.648,140.776 L64.08,140.632 L64.584,139.408 C64.8720014,139.312 65.2799974,139.120001 65.808,138.832 L66.24,137.68 L66.816,137.68 L66.6,136.456 L67.608,136.312 C67.7040005,136.119999 67.8599989,135.880001 68.076,135.592 C68.2920011,135.303999 68.5199988,135.040001 68.76,134.8 L72.432,129.904 L73.008,128.824 L72.936,128.536 L73.44,127.744 L73.584,126.952 L74.232,126.376 L74.304,125.584 Z M117.432,140.344 L116.568,142.504 L117.144,143.944 L116.856,144.376 L116.568,145.528 L115.992,146.536 L115.704,146.68 L115.56,148.048 L114.264,148.192 C113.591997,148.816003 112.896004,149.319998 112.176,149.704 L111.744,149.632 L110.664,149.992 L110.016,150.064 L108.648,150.568 L107.064,149.848 L106.848,149.704 L105.624,149.776 L105.912,149.92 L103.896,149.632 L102.096,150.064 L101.376,149.416 L99.864,149.56 L99.288,149.128 C99.2399998,149.128 99.0480017,149.152 98.712,149.2 L98.712,149.632 C98.712,150.064002 98.6400007,150.495998 98.496,150.928 L98.712,152.296 L98.136,153.016 C98.2320005,154.072005 98.28,154.863997 98.28,155.392 L98.064,157.192 L98.352,159.928 L97.776,160.648 L98.064,161.728 L97.848,162.448 L98.28,162.664 L98.28,163.744 C98.3760005,164.032 98.424,164.247999 98.424,164.392 C98.424,164.824002 98.16,165.183999 97.632,165.472 L97.92,166.48 L97.56,167.056 L97.416,169.936 C97.2719993,173.296017 96.5280067,174.976 95.184,174.976 C94.8959986,174.976 94.056007,174.784002 92.664,174.4 L92.88,172.24 L92.448,169.072 L93.168,167.776 L93.24,166.192 L92.952,164.032 L93.528,163.096 L92.88,161.44 L93.384,160.576 L92.952,159.136 L93.528,157.84 C93.4319995,157.551999 93.2520013,157.288001 92.988,157.048 C92.7239987,156.807999 92.592,156.64 92.592,156.544 C92.592,156.399999 92.7599983,156.256001 93.096,156.112 C93.0479998,155.967999 93.024,155.728002 93.024,155.392 C93.024,154.767997 93.1679986,153.952005 93.456,152.944 L93.024,152.224 L93.24,151.288 L92.736,150.64 L93.384,149.848 L93.096,147.76 L93.528,144.808 L93.024,143.872 L93.816,142.504 L92.952,141.712 L93.456,140.344 L92.952,139.984 L93.024,138.76 L93.456,137.248 L93.456,136.96 L93.528,136.672 L93.528,135.88 L93.6,135.592 L93.24,134.44 L93.6,133.216 L93.24,132.28 L93.528,131.2 L93.24,130.912 L93.456,129.472 L93.24,128.68 L93.384,127.96 L93.168,127.456 L90.576,128.608 L90.576,128.176 L90.072,128.248 L89.28,128.968 L88.632,128.968 L87.768,130.12 L87.048,129.832 L86.688,130.552 C84.3359882,129.159993 83.16,128.056004 83.16,127.24 C83.16,126.663997 83.3759978,126.184002 83.808,125.8 L83.736,124.72 C85.0800067,123.951996 86.351994,123.544 87.552,123.496 L88.056,122.992 L90.36,122.056 L90.864,121.552 L92.88,121.696 L93.24,121.552 L93.888,119.032 L95.616,119.392 L96.768,121.264 L97.416,120.616 L98.712,121.552 C99.3360031,121.552 99.9359971,121.671999 100.512,121.912 L100.872,122.56 L101.376,122.344 L101.952,122.776 C102.288002,122.776 102.551999,122.8 102.744,122.848 L102.672,123.28 L104.256,122.776 L105.048,123.64 L106.416,124.072 L107.352,125.224 L109.08,126.304 L109.152,126.448 L110.52,126.88 L110.52,127.312 C110.904002,127.600001 111.191999,127.983998 111.384,128.464 L111.96,128.824 L112.392,129.616 L113.256,129.616 L113.256,131.056 L113.76,131.56 L113.904,132.064 L114.624,132.208 C114.72,133.312006 115.031997,134.247996 115.56,135.016 L115.56,135.52 L116.28,136.24 L116.136,137.392 L116.712,138.688 L116.928,140.2 L117.432,140.344 Z M109.601633,145.582367 L110.952,144.232 L111.096,143.224 L111.456,143.08 L111.24,142.504 L111.744,141.928 L112.032,141.424 L111.96,141.064 L112.032,140.776 L111.6,139.48 L111.888,138.832 L111.6,138.256 L111.528,137.536 L110.952,136.384 L110.664,135.592 L109.584,133.72 L108.72,133 L108.216,131.776 L107.568,131.488 L106.416,129.976 L105.264,130.12 L104.4,128.968 L103.68,129.112 L103.176,128.176 L102.888,128.104 L101.88,128.104 L101.16,128.464 L100.584,127.888 L99.864,128.032 L99.576,127.528 L98.28,127.312 L98.352,128.176 L98.208,129.544 L98.496,130.336 L99.504,131.272 L98.712,133 L98.784,134.08 L98.424,136.24 C98.5680007,137.152005 98.8559978,137.919997 99.288,138.544 L99,139.336 C99.0480002,139.384 99.072,139.432 99.072,139.48 C99.072,139.624001 98.8800019,139.839999 98.496,140.128 L99,140.776 L98.64,141.64 L98.496,142.576 L98.712,143.584 L98.64,144.52 L100.152,144.52 C100.344001,144.424 100.607998,144.376 100.944,144.376 C101.376002,144.376 101.759998,144.519999 102.096,144.808 C102.144,144.808 102.239999,144.784 102.384,144.736 L102.6,144.736 C102.744001,144.736 103.007998,144.784 103.392,144.88 C103.680001,144.735999 103.943999,144.664 104.184,144.664 C104.568002,144.664 104.927998,144.759999 105.264,144.952 L105.912,144.952 L106.488,145.096 L107.928,144.664 L109.08,145.384 C109.388572,145.486857 109.562449,145.552979 109.601633,145.582367 L109.601633,145.582367 Z M161.712,121.48 L160.2,125.152 L159.48,125.368 L158.328,125.368 L157.248,125.512 L156.456,125.368 L152.64,125.656 L151.488,125.368 L151.272,125.44 C150.887998,125.632001 150.192005,125.799999 149.184,125.944 L147.744,125.944 L147.312,125.8 L147.096,125.8 C146.615998,125.8 146.016004,125.895999 145.296,126.088 C144.719997,126.232001 143.976005,126.304 143.064,126.304 L142.056,126.088 L141.912,126.808 L141.192,126.808 L140.976,128.896 L141.264,129.4 L141.192,130.336 L141.192,131.92 C141.192,133.552008 141.024002,134.655997 140.688,135.232 L141.192,135.952 L140.76,137.68 L141.192,138.184 L140.472,139.192 L140.472,139.696 L140.112,140.344 L140.4,141.712 L140.184,144.232 L139.824,145.384 C139.872,145.432 139.896,145.551999 139.896,145.744 C139.896,145.648 139.824001,145.911997 139.68,146.536 C139.68,146.584 139.704,146.656 139.752,146.752 L139.752,147.04 C139.752,147.472002 139.608001,147.903998 139.32,148.336 L139.536,149.2 C139.536,149.536002 139.512,149.728 139.464,149.776 L139.392,149.92 C139.344,150.064001 139.308,150.195999 139.284,150.316 C139.26,150.436001 139.248,150.567999 139.248,150.712 C139.248,151.480004 139.343999,152.127997 139.536,152.656 C139.055998,152.752 138.564003,152.812 138.06,152.836 C137.555997,152.86 137.256,152.872 137.16,152.872 C136.871999,152.872 136.584001,152.824 136.296,152.728 L136.152,152.728 C135.095995,152.439999 134.568,151.456008 134.568,149.776 C134.616,149.631999 134.64,149.344002 134.64,148.912 C134.64,148.575998 134.592,148.108 134.496,147.508 C134.4,146.907997 134.352,146.488001 134.352,146.248 C134.352,145.815998 134.423999,145.456001 134.568,145.168 L134.784,142.648 C134.447998,142.167998 134.28,141.808001 134.28,141.568 C134.28,141.616 134.328,141.448002 134.424,141.064 C134.279999,140.775999 134.208,140.536001 134.208,140.344 C134.208,139.959998 134.303999,139.696001 134.496,139.552 C134.496,139.311999 134.663998,138.808004 135,138.04 C134.904,137.559998 134.856,137.200001 134.856,136.96 C135.144001,136.96 135.288,136.816001 135.288,136.528 C135.288,136.432 135.252,136.312001 135.18,136.168 C135.108,136.023999 135.072,135.832001 135.072,135.592 L135.216,135.808 L135,135.232 C135,134.415996 135.095999,133.744003 135.288,133.216 L135.288,131.488 L135,130.192 L135.288,128.104 L135,126.808 L135.072,126.232 L134.208,126.232 L133.488,126.592 L133.056,126.592 L133.056,126.808 C132.143995,126.808 131.304004,126.736001 130.536,126.592 L130.32,127.096 L127.944,126.304 L124.776,126.232 L122.76,126.808 C121.943996,126.087996 121.332002,125.356004 120.924,124.612 C120.515998,123.867996 120.312,123.328002 120.312,122.992 C120.312,122.608 120.36,122.320001 120.456,122.128 L121.824,120.904 L122.976,120.976 L127.08,121.768 L128.16,121.408 L131.256,121.48 L133.704,121.768 L135.288,121.192 L135.864,119.608 L138.312,120.184 L138.384,120.112 L138.528,120.256 L139.392,121.336 L139.608,121.336 L140.472,121.048 L142.272,121.48 C143.184005,121.335999 143.891997,121.216 144.396,121.12 C144.900003,121.024 145.223999,120.976 145.368,120.976 C145.800002,120.976 146.327997,121.095999 146.952,121.336 L147.672,121.336 C147.912001,121.336 148.127999,121.324 148.32,121.3 C148.512001,121.276 148.656,121.264 148.752,121.264 L149.184,121.264 L151.272,120.976 L153.072,121.336 L153.288,121.408 L154.224,121.12 L155.52,121.408 L158.544,121.336 L159.912,121.48 L161.712,121.48 Z M169.416,144.088 L169.992,146.32 L170.496,145.6 L172.08,143.728 L174.312,142.648 C174.552001,142.071997 174.947997,141.628002 175.5,141.316 C176.052003,141.003998 176.591997,140.728001 177.12,140.488 L181.296,136.672 L183.24,134.368 L184.968,133.144 L185.04,132.784 C185.136,132.399998 185.375998,132.196 185.76,132.172 C186.144002,132.148 186.455999,132.088 186.696,131.992 L188.136,129.832 L188.352,129.4 L191.016,127.816 L193.824,124.072 L194.976,123.424 L195.336,122.488 L196.344,121.984 C196.584001,121.551998 197.003997,121.072003 197.604,120.544 C198.204003,120.015997 198.767997,119.632001 199.296,119.392 L199.872,120.04 L200.52,119.896 C201.576005,119.992 202.08,120.351997 202.032,120.976 C202.176001,121.216001 202.248,121.479999 202.248,121.768 C202.248,122.008001 202.128001,122.295998 201.888,122.632 L201.6,126.16 L201.312,126.736 L201.384,128.464 L201.024,130.552 L201.168,133.432 L200.52,134.584 L201.528,136.384 L200.952,138.112 L201.312,139.12 L201.672,139.84 L201.456,141.712 L201.456,142.36 C201.504,142.504001 201.528,142.635999 201.528,142.756 L201.528,143.08 L201.312,143.512 L200.808,144.088 C200.856,144.184 200.88,144.375999 200.88,144.664 C200.88,144.904001 200.844,145.083999 200.772,145.204 C200.7,145.324001 200.64,145.432 200.592,145.528 L201.024,146.464 L200.448,147.472 L201.024,149.56 C200.879999,150.424004 200.484003,151.071998 199.836,151.504 C199.187997,151.936002 198.480004,152.152 197.712,152.152 L196.416,152.152 C196.175999,151.767998 195.948001,151.372002 195.732,150.964 C195.515999,150.555998 195.384,150.112002 195.336,149.632 C195.336,149.439999 195.407999,149.224001 195.552,148.984 L194.832,147.976 L195.336,147.112 L195.264,145.888 L195.48,144.52 L194.832,142.36 L195.48,142.216 C195.384,142.023999 195.348,141.820001 195.372,141.604 C195.396,141.387999 195.408,141.160001 195.408,140.92 C195.408,140.439998 195.575998,140.056001 195.912,139.768 L196.128,138.904 L195.48,135.88 L195.696,134.08 L195.336,131.488 L195.912,130.84 L196.128,129.472 L196.344,128.392 L195.984,128.32 L194.184,130.768 L192.816,131.776 L192.024,132.712 C191.639998,133.240003 191.208002,133.743998 190.728,134.224 C190.247998,134.704002 189.744003,135.135998 189.216,135.52 L188.424,136.672 L187.272,136.96 L185.256,139.84 L182.52,142.072 L181.368,143.224 L180.504,143.728 L179.352,144.736 L177.624,145.6 L177.336,146.176 L172.152,149.992 L171.792,150.064 L171.288,151 C171.047999,151.048 170.796001,151.155999 170.532,151.324 C170.267999,151.492001 169.992001,151.6 169.704,151.648 L169.344,151.936 L169.272,151.936 L169.272,152.44 L165.24,153.448 L164.52,152.512 L163.44,151.72 L164.664,150.424 L163.944,147.76 L164.16,147.544 L163.8,146.752 L165.24,146.032 L164.16,144.664 L165.096,143.152 L164.808,141.856 L164.88,140.92 L164.52,138.904 L165.096,138.184 L164.52,135.88 L165.024,135.232 L164.232,134.08 L164.664,131.272 L164.52,130.984 C164.135998,130.647998 163.92,129.49601 163.872,127.528 L163.8,127.312 L164.016,125.944 L163.8,125.08 C163.896,124.695998 164.111998,124.288002 164.448,123.856 C164.688001,123.808 164.808,123.664001 164.808,123.424 C164.808,123.183999 164.879999,122.932001 165.024,122.668 C165.168001,122.403999 165.192,122.080002 165.096,121.696 L167.4,121.408 L167.76,120.76 L171.36,122.128 L170.928,122.776 L171.72,123.496 L170.856,124 L171.648,126.304 L170.64,127.096 L170.64,130.552 L170.136,132.496 L170.784,134.872 L169.704,135.808 L169.704,136.024 L170.352,136.96 L170.28,140.2 L169.992,140.416 L170.496,141.568 L169.416,144.088 Z" id="path-2"></path>
    </defs>
    <g id="Page-1" stroke="none" stroke-width="1" fill="none" fill-rule="evenodd">
        <g id="logo" transform="translate(0.000000, -2.000000)" fill-rule="nonzero">
            <g id="Group" transform="translate(0.000000, 2.000000)">
                <circle id="Oval" fill="#53AEF9" cx="88.4814129" cy="88.4814129" r="86.3692411"></circle>
                <path d="M88.4814129,176.962826 C39.6923556,176.962826 0,137.27047 0,88.4814129 C0,39.6923556 39.6923556,0.000422434368 88.4814129,0.000422434368 C137.27047,0.000422434368 176.963248,39.692778 176.963248,88.4818353 C176.963248,137.270893 137.27047,176.962826 88.4814129,176.962826 Z M88.4814129,4.22476611 C42.0220811,4.22476611 4.22434368,42.0225036 4.22434368,88.4814129 C4.22434368,134.940322 42.0220811,172.738482 88.4814129,172.738482 C134.941167,172.738482 172.738905,134.940745 172.738905,88.4814129 C172.738905,42.0220811 134.941167,4.22476611 88.4814129,4.22476611 Z" id="Shape" fill="#333333"></path>
                <circle id="Oval" fill="#20505B" cx="88.4814129" cy="88.4818353" r="75.3018831"></circle>
                <path d="M88.4814129,165.89589 C45.7952649,165.89589 11.067358,131.167983 11.067358,88.4818353 C11.067358,45.7956874 45.7952649,11.0677804 88.4814129,11.0677804 C131.167561,11.0677804 165.895468,45.7952649 165.895468,88.4818353 C165.895468,131.168406 131.167561,165.89589 88.4814129,165.89589 Z M88.4814129,15.2921241 C48.124568,15.2921241 15.2917017,48.1249905 15.2917017,88.4818353 C15.2917017,128.839103 48.124568,161.671547 88.4814129,161.671547 C128.83868,161.671547 161.671124,128.83868 161.671124,88.4818353 C161.671124,48.1249905 128.83868,15.2921241 88.4814129,15.2921241 Z" id="Shape" fill="#333333"></path>
            </g>
            <g id="Group" transform="translate(113.000000, 52.000000)">
                <path d="M19.9514894,37.6489362 C14.1906383,22.1953191 17.8161702,25.8212766 2.36340426,20.0608511 C17.8161702,14.3004255 14.1906383,17.9255319 19.9514894,2.47276596 C25.7119149,17.9255319 22.086383,14.3 37.5395745,20.0608511 C22.086383,25.8212766 25.7123404,22.1957447 19.9514894,37.6489362 Z" id="Shape" fill="#FCBC1D"></path>
                <path d="M37.5387234,22.1893617 C37.2919149,22.1893617 37.0408511,22.1459574 36.7961702,22.0548936 C35.5255319,21.5812766 34.2668085,21.127234 32.8348936,20.6259574 C31.7259574,20.2374468 31.1417021,19.0238298 31.5302128,17.9144681 C31.9182979,16.8059574 33.1319149,16.2212766 34.2412766,16.6093617 C35.7004255,17.1204255 36.9842553,17.5834043 38.2821277,18.067234 C39.3834043,18.4778723 39.9429787,19.7029787 39.5323404,20.8042553 C39.213617,21.6604255 38.4021277,22.1893617 37.5387234,22.1893617 Z" id="Shape" fill="#333333"></path>
                <path d="M19.9514894,39.7765957 C19.0629787,39.7765957 18.2680851,39.2246809 17.9578723,38.3923404 C17.0855319,36.0531915 16.4217021,34.1319149 15.8876596,32.5876596 C14.7395745,29.267234 14.1634043,27.6008511 13.2876596,26.7246809 C12.4119149,25.8485106 10.7451064,25.2723404 7.42510638,24.1246809 C5.8812766,23.5910638 3.95957447,22.9268085 1.62042553,22.0544681 C0.787659574,21.7442553 0.235744681,20.9493617 0.235744681,20.0608511 C0.235744681,19.1723404 0.787659574,18.3774468 1.62042553,18.067234 C3.95914894,17.1953191 5.88085106,16.5310638 7.42468085,15.9974468 C10.7451064,14.8493617 12.4119149,14.2731915 13.2876596,13.3970213 C14.1634043,12.5208511 14.7395745,10.8544681 15.8876596,7.53404255 C16.4212766,5.99021277 17.0855319,4.06851064 17.9578723,1.7293617 C18.2680851,0.897021277 19.0629787,0.345106383 19.9514894,0.345106383 C20.84,0.345106383 21.6348936,0.897021277 21.9455319,1.7293617 C22.8174468,4.06851064 23.4812766,5.99021277 24.0153191,7.53404255 C25.667234,12.3123404 26.0276596,13.2391489 27.587234,14.0982979 C28.6161702,14.6655319 28.9910638,15.9595745 28.4238298,16.9885106 C27.8570213,18.0170213 26.5638298,18.3923404 25.533617,17.8251064 C22.4914894,16.1489362 21.7089362,13.8846809 19.993617,8.92425532 C19.9795745,8.88382979 19.9659574,8.84382979 19.9514894,8.80297872 C19.9374468,8.84382979 19.9234043,8.88425532 19.9093617,8.92468085 C17.1919149,16.7834043 16.673617,17.3017021 8.81489362,20.0187234 C8.77446809,20.032766 8.73446809,20.046383 8.69361702,20.0608511 C8.73489362,20.0748936 8.77489362,20.0889362 8.81531915,20.1029787 C16.6740426,22.82 17.1923404,23.3382979 19.9093617,31.1970213 C19.9229787,31.2374468 19.9370213,31.2774468 19.9514894,31.3182979 C19.9655319,31.2774468 19.9795745,31.2370213 19.993617,31.1965957 C22.7106383,23.3378723 23.2289362,22.8195745 31.0876596,20.1025532 C32.6102128,19.5761702 34.5046809,18.9212766 36.7961702,18.067234 C37.8965957,17.6570213 39.1221277,18.2170213 39.5331915,19.3174468 C39.9434043,20.4182979 39.3834043,21.6438298 38.2825532,22.0544681 C35.9438298,22.926383 34.0221277,23.5906383 32.4782979,24.1242553 C29.1578723,25.2723404 27.4914894,25.8485106 26.6157447,26.7242553 C25.74,27.6 25.1634043,29.2668085 24.0157447,32.5868085 C23.4817021,34.1306383 22.8178723,36.0523404 21.9459574,38.3914894 C21.6348936,39.2246809 20.84,39.7765957 19.9514894,39.7765957 Z" id="Shape" fill="#333333"></path>
            </g>
            <g id="Group" transform="translate(83.000000, 110.000000)">
                <path d="M23.5271651,43.6565556 C16.6578349,25.4541852 20.9809725,29.7253704 2.55438532,22.9403704 C20.9809725,16.1549444 16.6578349,20.4252778 23.5271651,2.22375926 C30.3960642,20.4252778 26.0729266,16.1545185 44.4995138,22.9403704 C26.0733578,29.7257963 30.3964954,25.455463 23.5271651,43.6565556 Z" id="Shape" fill="#FCBC1D"></path>
                <path d="M23.5271651,45.7861852 C22.6268349,45.7861852 21.821367,45.2337593 21.5065963,44.4006481 C20.4687156,41.6500185 19.6774771,39.3887778 19.0414679,37.5722037 C17.6534587,33.6064074 16.9566514,31.6160556 15.8506422,30.5231296 C14.7442018,29.4302037 12.7292385,28.7419074 8.71483486,27.3712778 C6.87536697,26.743037 4.58659633,25.961463 1.80109174,24.9358333 C0.957678899,24.6253333 0.398422018,23.8297037 0.398422018,22.9403704 C0.398422018,22.051037 0.957678899,21.2554074 1.80109174,20.9449074 C4.58573394,19.9197037 6.87450459,19.1377037 8.71354128,18.5098889 C12.7283761,17.1388333 14.7433394,16.450963 15.850211,15.3576111 C16.9566514,14.2646852 17.6538899,12.2743333 19.0414679,8.30853704 C19.6774771,6.49196296 20.4687156,4.23114815 21.5070275,1.48009259 C21.821367,0.646981481 22.6268349,0.0945555556 23.5271651,0.0945555556 C24.4274954,0.0945555556 25.2329633,0.646981481 25.5473028,1.48009259 C26.5851835,4.2302963 27.376422,6.49068519 28.0124312,8.30725926 C28.8881835,10.8087222 29.5207431,12.6159259 30.1455413,13.8336481 C30.6841009,14.8827037 30.2602385,16.1643148 29.198211,16.6962963 C28.1366147,17.2282778 26.8382936,16.8091667 26.3001651,15.7601111 C25.5416972,14.283 24.8686055,12.3603704 23.9372294,9.69961111 C23.8074404,9.32862963 23.6711835,8.93890741 23.5275963,8.53044444 C23.3840092,8.93933333 23.2473211,9.32948148 23.1175321,9.70088889 C19.9038532,18.8821481 19.4183303,19.3617407 10.1231101,22.5361667 C9.74754128,22.6643704 9.353,22.7993889 8.93905505,22.9412222 C9.35343119,23.0830556 9.74840367,23.2180741 10.1244037,23.3467037 C19.4183303,26.5207037 19.9042844,27.0002963 23.1175321,36.1815556 C23.2477523,36.552537 23.3840092,36.9426852 23.5275963,37.3515741 C23.6716147,36.9422593 23.8078716,36.5521111 23.9380917,36.1807037 C27.1513394,27.0002963 27.6372936,26.5202778 36.9316514,23.3462778 C37.3076514,23.2180741 37.7021927,23.0830556 38.1165688,22.9407963 C37.7017615,22.798537 37.3059266,22.6635185 36.9299266,22.5348889 C35.4457615,22.028037 34.1633945,21.5901852 33.0910183,21.1838519 C31.9794037,20.7626111 31.4235963,19.5312593 31.8496147,18.4327963 C32.2764954,17.3343333 33.5239358,16.7857407 34.6346881,17.2069815 C35.6402294,17.5877593 36.8311835,17.9945185 38.3390642,18.509463 C40.1785321,19.1377037 42.4677339,19.9197037 45.2536697,20.9453333 C46.0970826,21.2558333 46.6563394,22.051463 46.6563394,22.9407963 C46.6563394,23.8301296 46.0970826,24.6257593 45.2532385,24.9362593 C42.4685963,25.961463 40.1798257,26.743463 38.340789,27.3712778 C34.3263853,28.7423333 32.311422,29.4302037 31.2045505,30.5231296 C30.0976789,31.6160556 29.4013028,33.6064074 28.0137248,37.5717778 C27.3777156,39.3887778 26.5860459,41.6495926 25.5477339,44.4006481 C25.2329633,45.2337593 24.4274954,45.7861852 23.5271651,45.7861852 Z" id="Shape" fill="#333333"></path>
            </g>
            <g id="Group" transform="translate(21.000000, 95.000000)">
                <path d="M16.8304198,31.6628148 C12.0183704,18.7549877 15.0468889,21.7835062 2.13948148,16.9718765 C15.0473086,12.1602469 12.0187901,15.1883457 16.8304198,2.28093827 C21.6420494,15.1883457 18.6139506,12.1602469 31.521358,16.9718765 C18.6135309,21.7835062 21.6420494,18.7554074 16.8304198,31.6628148 Z" id="Shape" fill="#FCBC1D"></path>
                <path d="M16.8304198,33.7615802 C15.9539753,33.7615802 15.1698765,33.2171605 14.8638765,32.3961235 C14.1343457,30.4388148 13.5785926,28.8315802 13.1323951,27.5404198 C12.2194321,24.8993333 11.7165679,23.4448889 11.0369877,22.7653086 C10.3578272,22.0861481 8.90296296,21.583284 6.2622963,20.670321 C4.9711358,20.2241235 3.36390123,19.6683704 1.40659259,18.9388395 C0.585555556,18.6328395 0.0411358025,17.8487407 0.0411358025,16.9722963 C0.0411358025,16.0958519 0.585555556,15.3117531 1.40659259,15.0057531 C3.36390123,14.2762222 4.97071605,13.7204691 6.26187654,13.2742716 C8.90296296,12.3608889 10.3574074,11.8580247 11.0369877,11.1788642 C11.7165679,10.499284 12.2194321,9.04483951 13.1323951,6.40375309 C13.5785926,5.11259259 14.1343457,3.50535802 14.8638765,1.54804938 C15.1698765,0.727012346 15.9539753,0.182592593 16.8304198,0.182592593 C17.7068642,0.182592593 18.490963,0.727012346 18.796963,1.54804938 C19.5264938,3.50535802 20.0822469,5.11259259 20.5284444,6.40375309 C21.4414074,9.04483951 21.9446914,10.499284 22.6238519,11.1784444 C23.3034321,11.8580247 24.7578765,12.3608889 27.398963,13.2738519 C28.6901235,13.7200494 30.2969383,14.2758025 32.2542469,15.0053333 C33.075284,15.3113333 33.6197037,16.0954321 33.6197037,16.9718765 C33.6197037,17.848321 33.075284,18.6324198 32.2542469,18.9384198 C30.2969383,19.6679506 28.6901235,20.2237037 27.398963,20.6699012 C24.7578765,21.5828642 23.3034321,22.0857284 22.6242716,22.7648889 C21.9446914,23.4444691 21.4418272,24.8989136 20.5288642,27.5395802 C20.0822469,28.8311605 19.5264938,30.4379753 18.796963,32.3957037 C18.4905432,33.2171605 17.7064444,33.7615802 16.8304198,33.7615802 Z M8.40597531,16.9722963 C14.1288889,18.9799753 14.822321,19.6734074 16.83,25.396321 C18.837679,19.6734074 19.5311111,18.9795556 25.2540247,16.9722963 C19.5306914,14.9641975 18.837679,14.2707654 16.83,8.54785185 C14.8227407,14.2703457 14.1284691,14.965037 8.40597531,16.9722963 Z" id="Shape" fill="#333333"></path>
            </g>
            <g id="Group" transform="translate(34.000000, 28.000000)">
                <path d="M19.7155892,37.0249047 C13.9875456,21.7440105 17.5924305,25.3294412 2.22766653,19.6333991 C17.5924305,13.937357 13.9875456,17.5219461 19.7155892,2.24189349 C25.4432097,17.5219461 21.8383248,13.9369362 37.2035119,19.6333991 C21.8383248,25.3294412 25.4436328,21.7444313 19.7155892,37.0249047 Z" id="Shape" fill="#FCBC1D"></path>
                <path d="M19.7155892,39.1283629 C18.8321386,39.1283629 18.0417718,38.5826167 17.7333257,37.7595792 C16.8663762,35.4465746 16.2059038,33.5467719 15.6749025,32.0197765 C14.5333557,28.7364629 13.9604667,27.0887048 13.0897093,26.2223274 C12.2189519,25.35595 10.5616357,24.7862196 7.26054276,23.6513872 C5.72550493,23.1237344 3.81474671,22.4669034 1.48849589,21.604313 C0.660895559,21.2975674 0.112123766,20.5115582 0.112123766,19.6329783 C0.112123766,18.7543984 0.660895559,17.9683892 1.48849589,17.6616437 C3.8143236,16.799474 5.72465872,16.142643 7.25969655,15.6145694 C10.5612126,14.4793162 12.2181057,13.9095858 13.0892862,13.0436292 C13.9604667,12.1776726 14.5333557,10.5294938 15.6749025,7.24660092 C16.2054807,5.7200263 16.8659531,3.81980276 17.7333257,1.50679816 C18.0417718,0.683760684 18.8325617,0.138014464 19.7155892,0.138014464 C20.5990399,0.138014464 21.3894067,0.683760684 21.6978528,1.50679816 C22.4281382,3.45541091 23.0187977,5.12925707 23.4998721,6.51024326 C23.8823623,7.60804734 23.2976262,8.80683761 22.1941591,9.18721893 C21.2713594,9.50490467 20.2804391,9.15187377 19.7549383,8.38816568 C19.7278594,8.46685076 19.7007804,8.54469428 19.6737015,8.62169625 C16.9721534,16.3925838 16.456384,16.9050888 8.6424153,19.5917423 C8.60264309,19.6056279 8.56244778,19.6190927 8.52182936,19.6333991 C8.56244778,19.6472847 8.60264309,19.6611703 8.6428384,19.6750559 C16.4568072,22.3617094 16.9721534,22.8742143 19.6737015,30.6451019 C19.6876641,30.6850756 19.7012035,30.7250493 19.7155892,30.7654438 C19.7295518,30.7250493 19.7435144,30.6850756 19.757477,30.6451019 C22.4590251,22.8742143 22.9747944,22.3617094 30.7887632,19.6750559 C30.8285354,19.6615911 30.8687307,19.6477055 30.908926,19.6338199 C30.8687307,19.6199343 30.8289585,19.6064694 30.7891863,19.5925838 C26.500558,18.1181854 24.3477817,17.3780408 22.7403923,15.3347535 C22.0202615,14.4195661 22.1827352,13.0974885 23.1029963,12.3813281 C24.0232574,11.6651677 25.3526645,11.8271663 26.0727952,12.7419329 C26.8724704,13.7585273 28.1752216,14.2415779 32.171905,15.6158317 C33.7065197,16.1434845 35.617278,16.8003156 37.9426826,17.6624852 C38.7702829,17.9692308 39.3190547,18.75524 39.3190547,19.6338199 C39.3190547,20.5123997 38.7702829,21.2984089 37.9426826,21.6051545 C35.6168549,22.4673241 33.7065197,23.1241552 32.1714819,23.651808 C28.8699659,24.7870611 27.2130728,25.3567916 26.3418923,26.2227482 C25.4707118,27.0887048 24.8978228,28.7368836 23.756699,32.0197765 C23.2261209,33.5463511 22.5656484,35.4465746 21.6982759,37.7595792 C21.3894067,38.5821959 20.5990399,39.1283629 19.7155892,39.1283629 Z" id="Shape" fill="#333333"></path>
                <g id="Shape" transform="translate(29.194490, 30.295858)" fill="#FCBC1D">
                    <path d="M9.41374219,18.5835634 C8.24553947,18.5835634 7.29819942,17.6414464 7.29819942,16.4796844 L7.29819942,2.13165023 C7.29819942,0.969888231 8.24553947,0.0277712032 9.41374219,0.0277712032 C10.5819449,0.0277712032 11.529285,0.969888231 11.529285,2.13165023 L11.529285,16.4796844 C11.529285,17.6414464 10.5819449,18.5835634 9.41374219,18.5835634 Z"></path>
                    <path d="M16.6273199,11.4097567 L2.19974137,11.4097567 C1.03153865,11.4097567 0.084198602,10.4676397 0.084198602,9.30587771 C0.084198602,8.14411571 1.03153865,7.20199869 2.19974137,7.20199869 L16.6273199,7.20199869 C17.7955226,7.20199869 18.7428627,8.14411571 18.7428627,9.30587771 C18.7428627,10.4676397 17.7955226,11.4097567 16.6273199,11.4097567 Z"></path>
                </g>
            </g>
            <g id="Group" transform="translate(111.000000, 42.000000)" fill="#FCBC1D">
                <path d="M6.9426875,13.6427879 C5.7343125,13.6427879 4.7551875,12.6929091 4.7551875,11.5215758 L4.7551875,2.42878788 C4.7551875,1.25745455 5.7343125,0.307575758 6.9426875,0.307575758 C8.1510625,0.307575758 9.1301875,1.25745455 9.1301875,2.42878788 L9.1301875,11.522 C9.1301875,12.6933333 8.150625,13.6427879 6.9426875,13.6427879 Z" id="Shape"></path>
                <path d="M11.6309375,9.09660606 L2.2535625,9.09660606 C1.0451875,9.09660606 0.0660625,8.14672727 0.0660625,6.97539394 C0.0660625,5.80406061 1.0451875,4.85418182 2.2535625,4.85418182 L11.6309375,4.85418182 C12.8393125,4.85418182 13.8184375,5.80406061 13.8184375,6.97539394 C13.8184375,8.14672727 12.8393125,9.09660606 11.6309375,9.09660606 Z" id="Shape"></path>
            </g>
            <path d="M110.187246,155 C109.288172,155 108.446384,154.497033 108.12716,153.690396 C107.722227,152.665557 108.316508,151.539495 109.453906,151.174775 C111.293597,150.584764 113.126291,149.913617 114.900826,149.180239 C115.997119,148.726112 117.296316,149.159758 117.800077,150.148361 C118.303838,151.136964 117.822816,152.305958 116.725211,152.759691 C114.83392,153.541515 112.88097,154.256775 110.920586,154.885385 C110.678326,154.962977 110.430818,155 110.187246,155 Z" id="Shape" fill="#FFFFFF"></path>
            <path d="M126.09041,148 C125.424717,148 124.770718,147.676909 124.366041,147.07579 C123.713713,146.107367 123.95677,144.784394 124.908117,144.120782 C142.387761,131.927497 152.823762,111.821883 152.823762,90.3384553 C152.823762,74.1252377 146.911879,58.5764822 136.17686,46.5553705 C135.401332,45.6868509 135.464393,44.342197 136.317599,43.5527496 C137.17164,42.7628771 138.491748,42.8274953 139.267276,43.6955899 C150.702233,56.5006224 157,73.064989 157,90.3380302 C157,113.223928 145.885778,134.640611 127.268944,147.62717 C126.908117,147.879266 126.496758,148 126.09041,148 Z" id="Shape" fill="#FFFFFF"></path>
            <path d="M125.913216,37 C125.50385,37 125.089899,36.876001 124.728056,36.6177054 C121.136306,34.0557739 117.281929,31.8701302 113.271225,30.1208428 C112.211542,29.6587426 111.716718,28.3994445 112.165687,27.308768 C112.614655,26.2180914 113.838168,25.7083653 114.898268,26.1704655 C119.171182,28.0338834 123.277349,30.3624049 127.102546,33.0908126 C128.04884,33.7657278 128.284371,35.1022571 127.628635,36.0762287 C127.223438,36.6773451 126.573538,37 125.913216,37 Z" id="Shape" fill="#FFFFFF"></path>
            <g id="-" transform="translate(207.000000, 0.000000)" fill="#000000">
                <g id="">
                    <use xlink:href="#path-1"></use>
                    <use xlink:href="#path-1"></use>
                </g>
                <g id="">
                    <use xlink:href="#path-2"></use>
                    <use xlink:href="#path-2"></use>
                </g>
            </g>
        </g>
    </g>
</svg>